<svg width="555" height="831" viewBox="0 0 555 831" fill="none" xmlns="http://www.w3.org/2000/svg">
<path d="M104.655 744.744C104.655 744.744 81.5713 625.25 81.5098 600.681C81.4359 566.676 107.51 553.138 107.51 553.138L97.3831 524.306H153.063L144.265 552.942C144.265 552.942 173.613 568.47 169.515 603.739C161.861 669.672 149.679 744.695 149.679 744.695L104.655 744.744Z" fill="#383669"/>
<path d="M247.034 51.1797H16.6649V464.362H247.034V51.1797Z" fill="#504E83"/>
<path d="M235.444 63.1582H25.8593V452.04H235.444V63.1582Z" fill="#383669"/>
<path d="M256.777 468.069L247.035 464.348V44.1758H256.777V468.069Z" fill="#36346B"/>
<path d="M77.2495 314.355L131.756 263.847C138.648 257.451 147.67 250.555 156.535 253.698C160.811 255.262 164.022 258.858 168.204 260.594C176.552 264.066 186.107 259.03 192.528 252.682C198.95 246.333 204.025 238.358 211.809 233.745C219.594 229.132 231.685 229.711 235.538 237.889V292.869L156.347 326.677L77.2495 314.355Z" fill="#423F76"/>
<path d="M25.8593 282.751C45.9234 274.604 65.9405 281.532 80.2877 297.716C83.3106 301.125 86.0672 305.065 90.2179 306.942C95.8408 309.491 102.341 307.583 108.465 306.942C116.892 306.112 125.385 307.625 133.006 311.311C140.626 314.998 147.078 320.716 151.648 327.833L84.6733 360.671L25.8593 360.249V282.751Z" fill="#8689AA"/>
<path d="M235.46 283.002C222.24 276.638 210.618 284.332 198.433 292.494C186.247 300.657 174.939 311.102 160.623 314.386C151.068 316.575 140.825 315.356 131.599 318.64C112.804 325.332 101.84 349.179 81.9636 350.32C71.1406 350.946 61.4296 344.394 51.7656 339.468C42.1017 334.543 34.5366 329.883 25.8593 336.466V452.04H235.46V283.002Z" fill="#6E7191"/>
<path d="M209.599 182.912C213.947 164.344 202.395 145.772 183.797 141.431C165.199 137.089 146.597 148.622 142.248 167.19C137.9 185.758 149.451 204.33 168.05 208.671C186.648 213.013 205.25 201.48 209.599 182.912Z" fill="#747799"/>
<path d="M240.002 175.028H25.8593V179.172H240.002V175.028Z" fill="#504E83"/>
<path d="M240.002 267.629H25.8593V271.773H240.002V267.629Z" fill="#504E83"/>
<path d="M240.002 360.249H25.8593V364.393H240.002V360.249Z" fill="#6E7191"/>
<path d="M125.365 177.092V463.065H135.953V177.092H125.365Z" fill="#504E83"/>
<path d="M71.0154 63.1582H66.2226V177.107H71.0154V63.1582Z" fill="#504E83"/>
<path d="M112.397 63.1582H107.604V177.107H112.397V63.1582Z" fill="#504E83"/>
<path d="M153.762 63.1582H148.97V177.107H153.762V63.1582Z" fill="#504E83"/>
<path d="M195.143 63.1582H190.35V177.107H195.143V63.1582Z" fill="#504E83"/>
<path d="M256.777 39.9058H6.90778V51.1802H256.777V39.9058Z" fill="#36346B"/>
<path d="M263.371 469.458H0V479.966H263.371V469.458Z" fill="#6E7191"/>
<path d="M247.035 464.345L263.371 469.458H0L16.6495 464.345H247.035Z" fill="#504E83"/>
<path d="M183.353 273.298C175.099 274.611 171.402 284.76 172.123 293.095C172.843 301.429 176.273 309.561 175.349 317.88C174.19 328.435 166.202 337.348 165.263 347.934C164.166 360.444 173 371.468 175.647 383.712C176.931 389.67 176.743 395.956 178.967 401.632C180.855 406.468 184.364 410.5 188.898 413.04C193.431 415.579 198.707 416.469 203.824 415.557C208.942 414.645 213.584 411.989 216.957 408.04C220.331 404.092 222.227 399.097 222.322 393.908C222.51 384.322 216.59 375.299 217.31 365.761C217.843 358.693 222.009 352 221.1 344.979C220.051 336.613 212.282 330.686 209.541 322.711C206.8 314.737 209.447 305.964 208.492 297.582C206.8 282.555 198.452 272.078 183.353 273.298Z" fill="#05C168"/>
<path d="M141.141 345.965C139.731 359.897 145.84 376.27 153.06 388.295C160.328 400.386 171.261 409.854 184.276 415.331C185.733 415.941 187.55 416.457 188.787 415.472C189.223 414.992 189.549 414.423 189.744 413.805C189.939 413.187 189.997 412.534 189.915 411.891C190.012 397.116 185.313 382.707 176.52 370.822C167.727 358.937 155.315 350.216 141.141 345.965Z" fill="#05C168"/>
<g opacity="0.1">
<path opacity="0.1" d="M141.141 345.964C139.731 359.897 145.84 376.269 153.06 388.294C160.328 400.385 171.261 409.854 184.276 415.331C185.733 415.941 187.55 416.457 188.787 415.472C189.223 414.991 189.549 414.423 189.744 413.804C189.939 413.186 189.997 412.533 189.915 411.891C190.012 397.116 185.313 382.706 176.52 370.821C167.727 358.937 155.315 350.215 141.141 345.964Z" fill="black"/>
</g>
<path d="M201.881 444.447C201.713 444.205 201.576 443.942 201.474 443.665L200.487 441.382C199.641 439.396 198.388 436.535 196.806 433.032C188.504 414.708 178.309 397.298 166.389 381.085C164.118 377.958 162.239 375.487 160.907 373.783L159.341 371.797C159.157 371.573 158.995 371.332 158.855 371.077C158.855 371.077 159.09 371.265 159.466 371.703L161.033 373.595C162.442 375.237 164.384 377.676 166.734 380.757C178.967 396.825 189.231 414.296 197.308 432.797C198.874 436.347 200.017 439.24 200.769 441.273L201.631 443.618C201.742 443.885 201.826 444.163 201.881 444.447Z" fill="#EFF0F7"/>
<path d="M192.922 311.734C192.998 312.179 193.045 312.628 193.063 313.079C193.141 314.017 193.235 315.299 193.345 316.91C193.564 320.319 193.877 325.119 194.253 330.983C195.005 342.899 196.07 359.349 197.386 377.504C198.701 395.659 199.939 412.125 200.863 424.024C201.317 429.92 201.677 434.705 201.944 438.098C202.053 439.662 202.132 440.991 202.194 441.929C202.236 442.376 202.236 442.827 202.194 443.274C202.091 442.837 202.022 442.392 201.991 441.945C201.897 441.006 201.756 439.724 201.583 438.129C201.27 434.72 200.816 429.935 200.252 424.056C199.187 412.156 197.84 395.721 196.556 377.551C195.271 359.38 194.3 342.914 193.689 330.999C193.423 325.088 193.204 320.287 193.031 316.925C193.031 315.362 192.937 314.032 192.906 313.079C192.874 312.631 192.88 312.181 192.922 311.734Z" fill="#EFF0F7"/>
<path d="M180.415 430.906C180.232 427.472 182.967 424.587 186.406 424.587H208.991C212.305 424.587 214.991 427.274 214.991 430.587V450.185C214.991 454.623 213.225 458.879 210.082 462.016C206.939 465.154 202.677 466.917 198.232 466.917C193.941 466.915 189.814 465.272 186.7 462.326C183.586 459.38 181.721 455.354 181.488 451.077L180.415 430.906Z" fill="#312E72"/>
<path d="M215.147 436.785C215.147 436.785 214.709 436.535 213.863 436.253C212.673 435.898 211.412 435.85 210.198 436.113C208.384 436.56 206.616 437.178 204.92 437.959C203.853 438.393 202.738 438.697 201.599 438.865C200.365 439.012 199.115 438.948 197.903 438.677C195.644 438.091 193.422 437.376 191.246 436.535C189.498 435.921 187.646 435.656 185.795 435.753C184.56 435.818 183.362 436.201 182.318 436.863C181.582 437.364 181.269 437.756 181.206 437.709C181.409 437.272 181.722 436.894 182.115 436.613C183.169 435.808 184.427 435.309 185.748 435.174C187.683 434.991 189.635 435.21 191.481 435.816C193.548 436.441 195.71 437.379 198.059 437.88C199.189 438.132 200.353 438.202 201.505 438.084C202.576 437.921 203.626 437.642 204.638 437.254C206.384 436.483 208.213 435.911 210.088 435.55C211.396 435.325 212.74 435.466 213.973 435.956C214.85 436.347 215.179 436.754 215.147 436.785Z" fill="#DCDDEB"/>
<path d="M215.148 439.773C215.148 439.773 214.71 439.523 213.864 439.241C212.663 438.863 211.385 438.799 210.152 439.053C208.336 439.492 206.567 440.11 204.874 440.899C203.805 441.326 202.691 441.63 201.553 441.806C200.319 441.946 199.07 441.882 197.857 441.618C195.6 441.02 193.378 440.3 191.2 439.46C189.452 438.847 187.6 438.581 185.749 438.678C184.512 438.747 183.314 439.135 182.272 439.804C181.536 440.289 181.223 440.68 181.16 440.633C181.363 440.196 181.676 439.819 182.069 439.538C183.121 438.731 184.381 438.238 185.702 438.115C187.637 437.916 189.592 438.135 191.435 438.756C193.502 439.366 195.664 440.32 198.013 440.82C199.144 441.068 200.308 441.131 201.459 441.008C202.532 440.862 203.583 440.589 204.592 440.195C206.341 439.426 208.168 438.849 210.042 438.475C211.35 438.25 212.694 438.391 213.927 438.881C214.414 439.049 214.84 439.36 215.148 439.773Z" fill="#DCDDEB"/>
<path d="M186.313 441.477C186.313 441.586 186.047 441.727 185.953 442.133C185.859 442.54 186.031 443.025 186.611 442.931C187.19 442.837 187.222 442.337 186.987 441.961C186.752 441.586 186.439 441.57 186.423 441.461C186.407 441.352 186.862 441.117 187.41 441.57C187.565 441.711 187.684 441.886 187.758 442.082C187.831 442.278 187.857 442.489 187.833 442.696C187.785 442.965 187.653 443.211 187.456 443.399C187.259 443.587 187.007 443.708 186.736 443.744C186.466 443.794 186.188 443.757 185.94 443.639C185.693 443.521 185.489 443.328 185.358 443.087C185.27 442.896 185.231 442.686 185.244 442.475C185.258 442.265 185.324 442.062 185.436 441.883C185.812 441.289 186.345 441.367 186.313 441.477Z" fill="#DCDDEB"/>
<path d="M198.952 434.83C198.842 434.83 199.109 434.299 199.814 434.408C200.026 434.453 200.219 434.563 200.365 434.723C200.511 434.883 200.603 435.084 200.628 435.3C200.661 435.566 200.603 435.836 200.463 436.065C200.323 436.294 200.109 436.469 199.857 436.562C199.604 436.654 199.328 436.659 199.073 436.574C198.817 436.49 198.598 436.322 198.451 436.097C198.336 435.92 198.275 435.714 198.275 435.503C198.275 435.292 198.336 435.086 198.451 434.909C198.827 434.33 199.312 434.408 199.312 434.518C199.312 434.627 199.062 434.784 198.968 435.143C198.947 435.231 198.948 435.322 198.97 435.409C198.991 435.496 199.034 435.576 199.093 435.644C199.16 435.715 199.244 435.767 199.338 435.794C199.432 435.822 199.531 435.824 199.626 435.8C199.712 435.764 199.787 435.703 199.839 435.625C199.892 435.547 199.921 435.456 199.923 435.362C199.929 435.279 199.909 435.196 199.868 435.123C199.826 435.051 199.763 434.993 199.688 434.956C199.312 434.784 199.03 434.909 198.952 434.83Z" fill="#DCDDEB"/>
<path d="M211.184 441.274C211.184 441.18 211.654 440.977 212.202 441.493C212.365 441.652 212.48 441.854 212.532 442.075C212.585 442.297 212.574 442.528 212.5 442.744C212.424 443.03 212.253 443.281 212.014 443.457C211.775 443.632 211.483 443.721 211.187 443.708C210.891 443.695 210.608 443.582 210.385 443.387C210.163 443.191 210.014 442.926 209.963 442.634C209.912 442.405 209.935 442.165 210.028 441.95C210.12 441.734 210.278 441.552 210.479 441.43C211.153 441.039 211.607 441.43 211.513 441.508C211.419 441.587 211.122 441.508 210.824 441.884C210.751 441.956 210.701 442.047 210.678 442.147C210.656 442.247 210.663 442.351 210.699 442.447C210.738 442.558 210.807 442.656 210.898 442.73C210.989 442.805 211.099 442.853 211.216 442.869C211.339 442.865 211.459 442.826 211.562 442.757C211.664 442.688 211.745 442.591 211.795 442.478C211.845 442.381 211.87 442.274 211.87 442.165C211.87 442.056 211.845 441.949 211.795 441.852C211.529 441.477 211.169 441.399 211.184 441.274Z" fill="#DCDDEB"/>
<path d="M425.369 137.869L392.104 138.176L392.411 171.387L425.677 171.08L425.369 137.869Z" fill="#4E4B88"/>
<path d="M425.309 146.331C419.859 146.841 414.384 147.044 408.911 146.94C403.438 147.139 397.958 147.041 392.495 146.644C397.946 146.145 403.42 145.941 408.894 146.036C414.367 145.837 419.847 145.935 425.309 146.331Z" fill="#7976AB"/>
<path d="M415.219 156.632C415.063 156.159 414.935 155.677 414.836 155.188C414.44 153.913 413.639 152.802 412.553 152.022C411.762 151.466 410.846 151.112 409.886 150.99C408.926 150.869 407.951 150.984 407.046 151.326C405.933 151.74 404.975 152.489 404.305 153.469C403.635 154.449 403.285 155.612 403.304 156.798C403.324 157.984 403.71 159.136 404.412 160.094C405.113 161.052 406.094 161.769 407.221 162.147C408.132 162.471 409.108 162.568 410.065 162.428C411.022 162.289 411.93 161.918 412.71 161.347C413.783 160.551 414.566 159.427 414.94 158.146C415.032 157.653 415.148 157.165 415.289 156.684C415.417 157.193 415.417 157.725 415.289 158.233C415.024 159.662 414.251 160.947 413.111 161.852C412.261 162.537 411.25 162.995 410.174 163.184C409.098 163.373 407.992 163.285 406.959 162.93C405.678 162.49 404.564 161.664 403.773 160.566C402.981 159.469 402.55 158.153 402.538 156.8C402.527 155.447 402.936 154.124 403.709 153.012C404.482 151.901 405.581 151.057 406.855 150.595C407.882 150.226 408.986 150.121 410.064 150.292C411.143 150.462 412.161 150.902 413.024 151.569C414.175 152.46 414.972 153.73 415.272 155.153C415.378 155.643 415.36 156.151 415.219 156.632Z" fill="#7976AB"/>
<path d="M554.299 171.176H345.34V181.824H554.299V171.176Z" fill="#36346B"/>
<path d="M519.028 179.287H513.12V214.239H519.028V179.287Z" fill="#36346B"/>
<path d="M387.232 178.761H381.15V214.774H387.232V178.761Z" fill="#36346B"/>
<path d="M443.311 0C446.861 0.2822 450.318 1.2767 453.474 2.9238C456.63 4.571 459.42 6.837 461.678 9.5862C466.162 15.1277 469.316 21.6207 470.897 28.5673C474.382 41.8592 472.03 57.4824 468.126 70.6352C453.784 65.4158 445.054 50.0014 441.115 41.9288C434.894 29.1588 431.409 2.2965 443.311 0Z" fill="#05C168"/>
<path d="M488.67 86.8857C486.548 83.5247 485.35 79.6644 485.197 75.6939C485.044 71.7235 485.942 67.7828 487.799 64.2687C489.727 60.7937 492.329 57.7365 495.453 55.2753C498.576 52.8141 502.159 50.998 505.992 49.9329C509.478 48.889 513.59 48.4715 516.622 50.5244C517.979 51.582 519.031 52.9796 519.67 54.5748C520.31 56.1701 520.515 57.906 520.264 59.6061C519.69 63.0001 518.236 66.1849 516.047 68.8443C508.972 78.2218 500.364 86.0157 488.67 86.8857Z" fill="#05C168"/>
<path d="M473.442 100.96C468.971 93.8537 462.866 87.9167 455.635 83.6407C448.403 79.3651 440.253 76.8747 431.863 76.3767C427.593 76.1679 422.505 76.9857 420.693 80.8306C418.88 84.6757 421.512 89.1467 424.457 92.2257C430.751 98.5287 438.774 102.829 447.514 104.584C456.253 106.34 465.318 105.472 473.564 102.091" fill="#05C168"/>
<path d="M488.792 132.469C488.508 131.55 488.31 130.606 488.2 129.651C487.886 127.911 487.468 125.197 487.015 121.909C485.698 113.347 485.505 104.65 486.44 96.0377C487.47 87.3757 490.803 79.1457 496.094 72.2029C497.714 70.1289 499.58 68.2593 501.653 66.6356C502.367 66.0441 503.012 65.6787 503.395 65.4004C503.597 65.2421 503.82 65.1132 504.058 65.0176C501.306 67.2593 498.81 69.7974 496.617 72.5857C491.576 79.5425 488.397 87.6687 487.381 96.1947C486.483 104.726 486.594 113.334 487.712 121.839C488.078 125.006 488.374 127.615 488.6 129.599C488.733 130.55 488.797 131.509 488.792 132.469Z" fill="#DCDDEB"/>
<path d="M447.77 20.2173C447.986 20.5668 448.172 20.9334 448.328 21.3134L449.774 24.532C451.012 27.3156 452.772 31.3867 454.88 36.4321C459.115 46.5054 464.778 60.5107 470.686 76.1165C476.593 91.7227 481.63 105.971 485.132 116.341C486.875 121.56 488.269 125.718 489.193 128.641C489.611 130.033 489.959 131.146 490.238 131.999C490.38 132.381 490.479 132.778 490.535 133.182C490.332 132.825 490.174 132.446 490.064 132.051C489.75 131.216 489.35 130.12 488.862 128.745L484.522 116.567C480.88 106.267 475.809 92.0527 469.849 76.4645C463.89 60.876 458.366 46.8882 454.288 36.6931L449.443 24.706C448.92 23.3489 448.485 22.2529 448.154 21.4178C447.981 21.0335 447.852 20.6307 447.77 20.2173Z" fill="#DCDDEB"/>
<path d="M438.587 87.3376C439.508 87.3216 440.428 87.3796 441.34 87.5116C442.413 87.5756 443.479 87.7206 444.529 87.9466C445.944 88.1826 447.345 88.4906 448.729 88.8686L451.134 89.5296C451.97 89.7736 452.876 90.1216 453.695 90.4346C455.571 91.1076 457.409 91.8796 459.202 92.7486C463.285 94.7926 467.145 97.2526 470.721 100.091C474.295 103.023 477.543 106.33 480.41 109.955C481.63 111.529 482.764 113.166 483.808 114.861C484.296 115.662 484.801 116.41 485.202 117.175L486.352 119.385C486.999 120.659 487.581 121.966 488.095 123.299C488.524 124.282 488.885 125.294 489.175 126.326C489.486 127.194 489.731 128.084 489.907 128.988C489.698 128.988 488.687 125.248 485.76 119.681L484.575 117.523C484.174 116.775 483.651 116.044 483.163 115.261C482.205 113.678 480.968 112.13 479.678 110.46C474.054 103.391 466.953 97.6316 458.871 93.5836C456.989 92.7136 455.229 91.8436 453.469 91.2176C452.615 90.9046 451.726 90.5386 450.977 90.2776L448.607 89.5646C442.577 87.8076 438.587 87.5986 438.587 87.3376Z" fill="#DCDDEB"/>
<path d="M461.503 119.628H513.137V149.796C513.137 152.604 512.583 155.384 511.507 157.979C510.431 160.573 508.853 162.93 506.865 164.915C504.876 166.901 502.515 168.476 499.916 169.55C497.318 170.625 494.533 171.178 491.72 171.178H482.92C477.24 171.178 471.793 168.925 467.776 164.915C463.76 160.906 461.503 155.467 461.503 149.796V119.628Z" fill="#615F91"/>
<path d="M543.455 239.423C542.964 239.997 542.268 240.355 541.516 240.423C540.764 240.49 540.015 240.261 539.43 239.784L451.982 167.326L455.646 162.947L543.047 235.423C543.628 235.902 543.996 236.591 544.073 237.34C544.149 238.088 543.927 238.837 543.455 239.423Z" fill="#7876B4"/>
<path d="M478.957 185.926C478.957 185.926 473.626 199.468 468.165 198.908C462.704 198.348 461.22 189.627 461.22 189.627C461.22 189.627 456.722 197.381 452.074 193.64C447.425 189.899 448.654 180.679 448.654 180.679C448.654 180.679 440.983 185.466 438.328 181.345C434.687 175.668 445.66 166.055 445.66 166.055C445.66 166.055 453.592 144.828 459.485 145.349C464.342 145.764 463.276 153.817 463.276 153.817C463.276 153.817 467.245 148.215 472.059 148.134C476.873 148.053 475.048 159.976 475.048 159.976C475.048 159.976 483.548 154.71 486.484 159.267C489.42 163.823 480.839 170.879 480.839 170.879C480.839 170.879 492.164 168.116 491.046 174.596C489.928 181.075 478.957 185.926 478.957 185.926Z" fill="#4B3CFB"/>
<path d="M450.028 130.395C445.44 126.586 439.263 131.583 439.263 131.583C439.263 131.583 440.608 125.735 437.674 124.203C431.703 121.048 425.025 134.421 425.025 134.421C425.025 134.421 406.624 141.649 406.427 147.58C406.23 153.511 414.09 152.832 414.09 152.832C413.073 153.815 412.307 155.028 411.857 156.368C411.408 157.708 411.287 159.136 411.506 160.532C412.308 165.251 423.743 161.244 423.743 161.244C423.743 161.244 420.135 170.559 425.144 172.608C428.719 174.073 432.458 169.578 434.326 166.855C432.964 169.39 431.363 173.787 434.843 176.48C436.526 177.806 439.124 175.768 441.7 172.734C441.942 173.462 442.388 174.104 442.985 174.586C443.583 175.067 444.306 175.367 445.069 175.45C449.146 176.052 452.016 168.884 451.864 164.258C456.083 163.308 460.182 161.609 459.115 158.545C458.687 157.485 458.023 156.538 457.172 155.774C456.321 155.011 455.306 154.453 454.205 154.142C456.865 149.962 459.613 144.731 458.762 141.8C457.236 136.492 450.292 142.205 450.292 142.205C450.292 142.205 454.616 134.203 450.028 130.395Z" fill="white"/>
<path d="M412.253 108.16C412.253 108.16 412.362 100.593 407.282 98.4196C402.202 96.2456 397.14 108.197 397.14 108.197C397.14 108.197 385.109 105.624 382.005 111.421C378.9 117.219 386.423 123.17 386.423 123.17C386.423 123.17 380.369 125.956 381.763 131.207C383.157 136.457 392.874 134.054 392.874 134.054C392.874 134.054 387.396 144.869 391.968 146.282C396.54 147.694 402.337 142.235 402.337 142.235C402.337 142.235 399.341 151.244 405.238 151.829C407.847 152.091 410.707 148.64 413.106 144.715C413.697 145.713 414.625 146.467 415.724 146.842C416.822 147.216 418.019 147.187 419.098 146.759C425.743 144.167 422.031 137.174 422.031 137.174C422.031 137.174 436.23 134.821 435.506 129.743C435.213 127.587 432.794 126.945 430.116 126.895C433.077 124.42 435.122 121.704 433.897 119.292C431.354 113.958 421.949 117.953 421.949 117.953C421.949 117.953 426.769 112.595 423.599 107.584C420.429 102.574 412.253 108.16 412.253 108.16Z" fill="#4B3CFB"/>
<path d="M539.366 232.128C539.366 232.128 541.721 231.653 542.673 232.627C544.743 234.764 541.317 237.638 541.317 237.638C537.97 240.864 534.451 243.909 530.778 246.759C530.778 246.759 474.417 317.825 463.521 322.575C454.861 326.494 402.878 325.734 382.632 325.283L363.909 387.038L379.325 446.275L276.026 447.628L300.245 387.94L296.296 374.116L287.207 355.448C265.058 404.828 249.713 482.14 244.384 508.481L244.765 510.856C244.913 514.908 245.471 518.934 246.43 522.874C246.894 524.851 247.699 526.731 248.809 528.432C250.054 530.616 251.6 532.615 253.401 534.37C253.779 534.657 254.063 535.05 254.215 535.499C254.368 535.948 254.383 536.432 254.257 536.889C254.132 537.347 253.872 537.756 253.512 538.065C253.151 538.374 252.707 538.568 252.235 538.622C250.141 538.527 245.05 534.679 241.696 528.052C238.341 521.426 235.843 532.874 234.844 537.007C233.845 541.14 230.205 553.847 228.682 554.559C226.446 555.581 224.923 553.467 226.018 549.286C227.112 545.106 229.42 532.589 227.255 532.161C225.09 531.734 220.332 552.944 220.332 552.944C220.332 552.944 220.046 557.623 217.477 557.243C212.814 556.531 219.499 534.37 220.189 532.28C220.617 530.807 218.262 530.309 217.81 531.876C217.358 533.444 213.575 553.11 208.817 552.445C205.177 551.923 214.146 534.18 212.671 529.667C211.196 525.155 207.247 543.823 203.773 543.182C202.488 542.945 201.561 542.588 205.391 532.185C208.692 524.337 212.408 516.67 216.525 509.217C221.973 452.688 252.854 352.051 266.486 309.535C268.53 303.168 272.288 297.484 277.347 293.102C282.407 288.721 288.575 285.812 295.177 284.691C309.759 282.277 324.505 280.983 339.286 280.819C345.138 280.748 346.185 279.917 352.061 279.655C356.71 279.616 361.355 279.933 365.955 280.605C379.492 282.031 446.963 288.99 450.317 285.807C454.076 282.268 505.988 232.555 505.988 232.555H506.178C507.527 229.066 508.601 225.476 509.39 221.82C509.821 219.854 509.91 217.829 509.651 215.834C509.445 213.329 508.885 210.866 507.986 208.519C506.963 206.452 508.961 204.22 510.841 205.17C512.72 206.12 515.718 211.725 515.956 219.159C516.194 226.594 525.924 213.934 525.924 213.934C528.158 212.77 532.257 212.661 530.778 221.535C532.309 221.49 533.832 221.765 535.25 222.342C535.476 222.449 535.664 222.622 535.787 222.839C535.911 223.056 535.964 223.305 535.94 223.553C535.802 224.674 535.802 225.806 535.94 226.926C535.94 226.926 538.938 226.665 539.366 227.995C539.602 229.363 539.602 230.76 539.366 232.128Z" fill="#FFBE9D"/>
<path d="M271.481 403.522C274.479 393.309 289.872 342.813 289.872 342.813C289.872 342.813 297.437 383.975 295.439 388.939C293.6 393.188 291.429 397.286 288.944 401.195C271.481 427.725 273.765 441.003 273.765 441.003L379.277 437.796C379.515 423.07 370.784 388.82 368.976 383.357C367.168 377.894 373.187 360.009 373.187 360.009C373.187 360.009 385.082 347.919 384.654 341.696C384.428 336.106 383.736 330.545 382.584 325.07L446.819 327.445L444.797 283.979L352.537 274.764C349.325 283.813 320.276 279.371 320.276 279.371C288.92 280.416 286.969 286.164 273.932 296.283C260.894 306.401 239.316 393.238 239.316 393.238L271.481 403.522Z" fill="#0075FF"/>
<path d="M333.861 393.238C332.033 393.564 330.17 393.66 328.318 393.523C324.868 393.523 320.134 393.285 314.924 392.763C309.713 392.24 305.003 391.504 301.648 390.839C299.799 390.601 297.985 390.138 296.248 389.461C298.108 389.462 299.964 389.637 301.791 389.984C305.169 390.411 309.856 391.005 315.043 391.528C320.229 392.05 324.939 392.406 328.342 392.644C330.196 392.667 332.044 392.866 333.861 393.238Z" fill="white"/>
<path d="M341.093 384.283C339.264 385.177 337.33 385.839 335.336 386.254C325.844 388.744 316.051 389.903 306.239 389.698C304.209 389.764 302.179 389.572 300.197 389.128C302.2 388.875 304.22 388.772 306.239 388.819C309.975 388.7 315.113 388.439 320.776 387.774C326.438 387.109 331.481 386.159 335.05 385.399C337.032 384.87 339.053 384.497 341.093 384.283Z" fill="white"/>
<path d="M376.59 344.33C376.542 346.141 376.294 347.941 375.852 349.698C375.234 352.999 374.282 357.512 373.069 362.453C371.856 367.393 370.69 371.953 369.643 375.041C369.222 376.809 368.599 378.522 367.787 380.148C367.92 378.342 368.255 376.558 368.787 374.827C369.691 371.122 370.714 366.847 371.856 362.168C372.998 357.488 374.092 353.213 374.996 349.508C375.318 347.724 375.853 345.986 376.59 344.33Z" fill="white"/>
<path d="M272.6 397.464C267.096 396.615 261.665 395.353 256.351 393.687C250.922 392.42 245.594 390.752 240.411 388.699C245.913 389.561 251.343 390.824 256.66 392.476C262.091 393.739 267.419 395.406 272.6 397.464Z" fill="white"/>
<path d="M383.727 324.547C382.829 324.701 381.912 324.701 381.015 324.547C378.53 324.293 376.09 323.71 373.758 322.813C369.867 321.353 366.324 319.096 363.357 316.188C360.391 313.28 358.067 309.784 356.534 305.926C354.84 301.681 354.116 297.113 354.417 292.553C354.523 288.793 355.649 285.132 357.676 281.96C359.101 279.824 361.231 278.252 363.695 277.518C364.353 277.337 365.034 277.249 365.717 277.257C366.193 277.257 366.431 277.257 366.431 277.257C366.431 277.257 365.432 277.257 363.838 277.899C361.577 278.732 359.66 280.295 358.39 282.34C355.154 287.423 354.25 296.71 357.7 305.379C359.305 309.467 361.819 313.138 365.051 316.115C367.699 318.552 370.75 320.512 374.068 321.911C377.181 323.139 380.42 324.023 383.727 324.547Z" fill="white"/>
<path d="M439.184 326.59C438.589 319.307 438.398 311.996 438.613 304.691C438.427 297.393 438.649 290.089 439.279 282.816C439.875 290.091 440.065 297.394 439.85 304.691C440.05 311.998 439.828 319.31 439.184 326.59Z" fill="white"/>
<path d="M351.918 277.424C352.179 272.128 352.727 266.142 352.727 266.142C352.727 266.142 365.859 264.693 366.644 251.155C367.429 237.616 366.644 206.382 366.644 206.382L342.853 194.222L316.446 214.957L320.514 282.65L344.733 284.194C346.584 284.245 348.38 283.561 349.727 282.292C351.074 281.023 351.862 279.272 351.918 277.424Z" fill="#FFBE9D"/>
<path d="M354.274 240.442C354.274 240.442 354.274 240.704 354.06 241.012C353.883 241.236 353.654 241.414 353.393 241.53C353.132 241.646 352.846 241.696 352.561 241.677C351.039 241.677 349.564 239.92 349.04 237.877C348.792 236.887 348.792 235.851 349.04 234.861C349.089 234.429 349.245 234.015 349.495 233.659C349.744 233.302 350.078 233.013 350.468 232.818C350.788 232.686 351.147 232.686 351.467 232.818C351.704 232.936 351.896 233.127 352.014 233.364C352.181 233.768 352.014 234.029 352.014 234.006C352.014 233.982 352.014 233.768 351.776 233.531C351.652 233.36 351.469 233.242 351.263 233.198C351.056 233.155 350.841 233.188 350.658 233.293C350.366 233.469 350.124 233.716 349.953 234.011C349.783 234.306 349.69 234.639 349.683 234.979C349.482 235.863 349.482 236.78 349.683 237.663C350.158 239.516 351.443 241.012 352.585 241.155C352.809 241.185 353.036 241.169 353.253 241.108C353.47 241.047 353.672 240.941 353.846 240.799C354.132 240.609 354.227 240.419 354.274 240.442Z" fill="#EB996E"/>
<path d="M374.805 199.065C372.973 192.842 366.335 189.755 360.292 188.045C351.085 185.432 341.141 184.292 332.148 187.593C323.155 190.895 312.354 196.69 312.354 206.595C307.049 206.167 304.003 210.799 301.91 216.547C300.571 220.049 299.769 223.732 299.531 227.473C298.865 240.441 295.225 258.35 286.803 267.851C282.045 273.148 275.454 276.805 272.742 283.408C270.363 289.133 271.6 295.926 269.388 301.721C267.413 306.828 263.059 310.462 259.872 314.903C256.624 319.942 254.712 325.722 254.317 331.701C253.922 337.68 255.055 343.661 257.611 349.082C260.186 354.364 263.811 359.068 268.265 362.906C272.719 366.745 277.909 369.638 283.52 371.409C294.632 374.784 306.483 374.9 317.659 371.741C326.047 369.739 333.872 365.866 340.546 360.412C347.375 354.844 352.065 347.091 353.821 338.465C355.51 328.774 352.798 318.917 350.776 309.274C344.448 278.8 346.256 277.209 354.25 248.921C354.44 248.422 354.535 247.899 354.678 247.401C354.821 246.902 354.892 246.664 354.987 246.284C355.214 245.166 355.334 244.029 355.344 242.888C354.176 243.321 352.909 243.413 351.691 243.152C350.473 242.891 349.355 242.289 348.468 241.415C347.58 240.484 346.96 239.33 346.675 238.075C346.39 236.821 346.451 235.512 346.851 234.289C347.412 232.952 348.248 231.747 349.306 230.753C350.363 229.759 351.618 228.997 352.989 228.518C355.629 227.425 358.461 226.855 361.054 225.644C366.549 223.031 370.356 217.616 372.949 211.939C375.081 208.005 375.739 203.44 374.805 199.065Z" fill="#6E7191"/>
<path d="M273.766 441.001L379.278 437.795L425.194 616.741L416.749 822.005H360.959L367.787 621.112L326.986 496.533L333.267 829.962L276.883 830.793L270.959 517.387C270.697 508.67 267.842 489.027 268.913 480.382L273.766 441.001Z" fill="#6E7191"/>
<path d="M341.022 499.073C339.295 499.181 337.561 499.078 335.859 498.764C332.671 498.384 328.318 497.719 323.536 496.769C318.754 495.819 314.471 494.726 311.379 493.848C309.725 493.485 308.126 492.91 306.62 492.137C306.62 491.781 314.376 493.634 323.892 495.558C333.409 497.482 341.069 498.717 341.022 499.073Z" fill="#A0A3BD"/>
<path d="M325.487 820.439C325.154 820.439 323.679 747.593 322.18 657.739C320.682 567.886 319.801 494.992 320.111 494.992C320.42 494.992 321.943 567.815 323.418 657.716C324.893 747.616 325.844 820.439 325.487 820.439Z" fill="#A0A3BD"/>
<path d="M408.684 810.747C408.658 810.423 408.658 810.098 408.684 809.774V806.923C408.684 804.358 408.874 800.677 409.017 795.997C409.35 786.497 409.826 772.697 410.421 755.786C411.705 721.773 413.513 674.887 415.488 623.131C415.488 622.633 415.488 622.158 415.488 621.73V621.896C402.998 572.017 391.697 526.746 383.489 493.993L373.973 455.253C372.879 450.717 372.046 447.178 371.451 444.708C371.166 443.544 370.975 442.641 370.809 441.952C370.716 441.643 370.66 441.324 370.642 441.002C370.766 441.302 370.862 441.612 370.928 441.929C371.118 442.594 371.356 443.496 371.689 444.636C372.332 447.012 373.259 450.622 374.449 455.135C376.828 464.303 380.182 477.509 384.37 493.779C392.649 526.509 404.068 571.661 416.725 621.611V621.778C416.725 622.205 416.725 622.704 416.725 623.179C414.608 674.934 412.681 721.797 411.277 755.809C410.54 772.744 409.921 786.449 409.493 795.997C409.255 800.748 409.064 804.358 408.946 806.923C408.946 808.135 408.803 809.085 408.779 809.774C408.783 810.101 408.751 810.427 408.684 810.747Z" fill="#A0A3BD"/>
<path d="M390.483 617.551C386.476 618.866 382.348 619.781 378.159 620.282C373.02 621.161 371.494 621.127 369.519 621.222V620.747C370.162 620.937 370.495 621.056 370.495 621.151C370.495 621.246 370.09 621.151 369.424 621.151H367.997L369.424 620.723C371.28 620.177 372.806 619.926 377.945 618.999C382.067 618.107 386.266 617.622 390.483 617.551Z" fill="#A0A3BD"/>
<path d="M389.508 624.367C385.797 624.536 382.079 624.37 378.398 623.868C374.682 623.792 371.44 623.344 367.795 622.614C375.23 622.009 382.255 622.628 389.508 624.367Z" fill="#A0A3BD"/>
<path opacity="0.2" d="M273.313 444.778C274.563 446.38 276.137 447.701 277.932 448.654C279.728 449.608 281.705 450.173 283.734 450.312C287.983 450.815 292.281 450.735 296.509 450.074C323.75 447.058 352.608 444.279 379.277 437.795C344.757 439.719 308.286 439.077 273.765 441.001L273.408 443.946" fill="#A0A3BD"/>
<g opacity="0.2">
<path opacity="0.2" d="M308.881 493.352L328.341 568.74L326.985 496.535L308.881 493.352Z" fill="black"/>
</g>
<path d="M511.182 90.3845C517.378 92.7395 514.909 100.196 514.909 100.196C514.909 100.196 519.956 98.6265 522.362 102.206C524.768 105.785 516.324 107.025 517.645 108.281C518.966 109.537 524.611 112.3 520.57 115.471C516.528 118.642 511.135 113.76 511.135 113.76C511.135 113.76 509.94 116.695 505.286 117.386C500.631 118.077 502.518 110.306 502.518 110.306C502.518 110.306 499.515 114.34 497.44 107.998C497.111 107.236 496.961 106.408 497.001 105.578C497.04 104.749 497.269 103.94 497.669 103.212C498.07 102.484 498.631 101.856 499.31 101.377C499.99 100.898 500.77 100.58 501.591 100.448C501.591 100.448 498.682 94.8895 501.182 93.5085C503.682 92.1265 508.352 96.6485 508.352 96.6485C508.352 96.6485 508.085 89.2075 511.182 90.3845Z" fill="#407BFF"/>
<path d="M511.182 90.3845C517.378 92.7395 514.909 100.196 514.909 100.196C514.909 100.196 519.956 98.6265 522.362 102.206C524.768 105.785 516.324 107.025 517.645 108.281C518.966 109.537 524.611 112.3 520.57 115.471C516.528 118.642 511.135 113.76 511.135 113.76C511.135 113.76 509.94 116.695 505.286 117.386C500.631 118.077 502.518 110.306 502.518 110.306C502.518 110.306 499.515 114.34 497.44 107.998C497.111 107.236 496.961 106.408 497.001 105.578C497.04 104.749 497.269 103.94 497.669 103.212C498.07 102.484 498.631 101.856 499.31 101.377C499.99 100.898 500.77 100.58 501.591 100.448C501.591 100.448 498.682 94.8895 501.182 93.5085C503.682 92.1265 508.352 96.6485 508.352 96.6485C508.352 96.6485 508.085 89.2075 511.182 90.3845Z" fill="#ACAAD1"/>
<path d="M554.204 122.173C555.367 124.999 552.097 126.537 552.097 126.537C552.097 126.537 554.22 127.714 553.779 129.677C553.339 131.639 550.241 129.19 550.257 130.038C550.273 130.885 551.122 133.664 548.779 133.303C546.436 132.942 546.342 129.614 546.342 129.614C545.804 129.745 545.243 129.74 544.707 129.601C544.172 129.461 543.68 129.19 543.276 128.813C541.562 127.479 544.769 125.674 544.769 125.674C544.769 125.674 542.474 125.956 543.936 123.24C544.089 122.889 544.32 122.578 544.611 122.329C544.902 122.08 545.247 121.9 545.618 121.803C545.989 121.706 546.377 121.695 546.753 121.77C547.129 121.845 547.483 122.004 547.788 122.236C547.788 122.236 548.732 119.489 549.99 119.897C551.248 120.305 551.201 123.303 551.201 123.303C551.201 123.303 553.606 120.76 554.204 122.173Z" fill="#407BFF"/>
<path d="M554.204 122.173C555.367 124.999 552.097 126.537 552.097 126.537C552.097 126.537 554.22 127.714 553.779 129.677C553.339 131.639 550.241 129.19 550.257 130.038C550.273 130.885 551.122 133.664 548.779 133.303C546.436 132.942 546.342 129.614 546.342 129.614C545.804 129.745 545.243 129.74 544.707 129.601C544.172 129.461 543.68 129.19 543.276 128.813C541.562 127.479 544.769 125.674 544.769 125.674C544.769 125.674 542.474 125.956 543.936 123.24C544.089 122.889 544.32 122.578 544.611 122.329C544.902 122.08 545.247 121.9 545.618 121.803C545.989 121.706 546.377 121.695 546.753 121.77C547.129 121.845 547.483 122.004 547.788 122.236C547.788 122.236 548.732 119.489 549.99 119.897C551.248 120.305 551.201 123.303 551.201 123.303C551.201 123.303 553.606 120.76 554.204 122.173Z" fill="#ACAAD1"/>
<path d="M520.208 148.938C516.937 151.937 513.211 148.216 513.211 148.216C513.211 148.216 512.645 151.717 509.767 152.078C506.89 152.439 508.682 147.007 507.519 147.463C506.355 147.918 503.006 150.414 502.33 147.039C501.654 143.664 506.182 141.905 506.182 141.905C505.724 141.242 505.445 140.471 505.371 139.669C505.296 138.866 505.43 138.058 505.758 137.322C506.733 134.339 510.852 137.793 510.852 137.793C510.852 137.793 509.28 134.794 513.761 135.453C514.311 135.492 514.845 135.653 515.324 135.925C515.803 136.197 516.214 136.573 516.528 137.025C516.842 137.477 517.05 137.994 517.137 138.537C517.225 139.08 517.188 139.636 517.032 140.163C517.032 140.163 521.246 140.163 521.324 142C521.403 143.836 517.252 145.328 517.252 145.328C517.252 145.328 521.843 147.447 520.208 148.938Z" fill="#407BFF"/>
<path d="M520.208 148.938C516.937 151.937 513.211 148.216 513.211 148.216C513.211 148.216 512.645 151.717 509.767 152.078C506.89 152.439 508.682 147.007 507.519 147.463C506.355 147.918 503.006 150.414 502.33 147.039C501.654 143.664 506.182 141.905 506.182 141.905C505.724 141.242 505.445 140.471 505.371 139.669C505.296 138.866 505.43 138.058 505.758 137.322C506.733 134.339 510.852 137.793 510.852 137.793C510.852 137.793 509.28 134.794 513.761 135.453C514.311 135.492 514.845 135.653 515.324 135.925C515.803 136.197 516.214 136.573 516.528 137.025C516.842 137.477 517.05 137.994 517.137 138.537C517.225 139.08 517.188 139.636 517.032 140.163C517.032 140.163 521.246 140.163 521.324 142C521.403 143.836 517.252 145.328 517.252 145.328C517.252 145.328 521.843 147.447 520.208 148.938Z" fill="#ACAAD1"/>
</svg>
